<svg xmlns="http://www.w3.org/2000/svg" viewBox="0 0 7410 3900" aria-hidden="true">
  <rect width="7410" height="3900" fill="#b22234"></rect>
  <g fill="#fff">
    <rect width="7410" height="300" y="300"></rect>
    <rect width="7410" height="300" y="900"></rect>
    <rect width="7410" height="300" y="1500"></rect>
    <rect width="7410" height="300" y="2100"></rect>
    <rect width="7410" height="300" y="2700"></rect>
    <rect width="7410" height="300" y="3300"></rect>
  </g>
  <rect width="2964" height="2100" fill="#3c3b6e"></rect>
  <g fill="#fff">
    <!-- 50 stars simplified -->
    <g transform="scale(63)">
      <g id="s">
        <polygon points="247,90 261,138 312,138 271,168 286,216 247,186 208,216 223,168 182,138 233,138"></polygon>
      </g>
      <g id="row">
        <use href="#s" x="90"></use><use href="#s" x="270"></use><use href="#s" x="450"></use><use href="#s" x="630"></use><use href="#s" x="810"></use>
      </g>
      <g id="row5">
        <use href="#s"></use><use href="#s" x="180"></use><use href="#s" x="360"></use><use href="#s" x="540"></use><use href="#s" x="720"></use><use href="#s" x="900"></use>
      </g>
      <use href="#row" y="120"></use><use href="#row5" y="240"></use><use href="#row" y="360"></use><use href="#row5" y="480"></use><use href="#row" y="600"></use><use href="#row5" y="720"></use><use href="#row" y="840"></use><use href="#row5" y="960"></use><use href="#row" y="1080"></use>
    </g>
  </g>
</svg>
